<?xml version="1.0" standalone="no"?>
<!DOCTYPE svg PUBLIC "-//W3C//DTD SVG 20010904//EN"
 "http://www.w3.org/TR/2001/REC-SVG-20010904/DTD/svg10.dtd">
<svg version="1.0" xmlns="http://www.w3.org/2000/svg"
 width="99.000000pt" height="44.000000pt" viewBox="0 0 99.000000 44.000000"
 preserveAspectRatio="xMidYMid meet">

<g transform="translate(0.000000,44.000000) scale(0.100000,-0.100000)"
fill="#000000" stroke="none">
<path d="M880 350 c-15 -4 -23 -12 -21 -21 10 -34 12 -198 3 -237 l-10 -42 40
0 c29 0 37 3 31 13 -4 6 -10 75 -13 152 l-5 141 -25 -6z"/>
<path d="M744 329 c-3 -6 -2 -15 4 -21 15 -15 46 -5 50 15 3 12 -3 17 -22 17
-14 0 -28 -5 -32 -11z"/>
<path d="M743 244 c-9 -4 -9 -13 -2 -30 12 -33 12 -106 -1 -138 -9 -25 -8 -26
31 -26 33 0 40 3 35 16 -3 9 -6 54 -6 100 0 81 -1 84 -22 83 -13 0 -28 -3 -35
-5z"/>
</g>
</svg>
